<svg width="64" height="64" viewBox="0 0 64 64" fill="none" xmlns="http://www.w3.org/2000/svg">
<rect width="64" height="64" rx="8" fill="#290A5C"/>
<path d="M22 33.45V42C22 42.2652 22.1054 42.5196 22.2929 42.7071C22.4804 42.8946 22.7348 43 23 43H41C41.2652 43 41.5196 42.8946 41.7071 42.7071C41.8946 42.5196 42 42.2652 42 42V33.45M22.75 21H41.25C41.4669 21.0018 41.6774 21.0732 41.8506 21.2038C42.0238 21.3343 42.1505 21.517 42.212 21.725L44 28H20L21.787 21.725C21.8485 21.5169 21.9754 21.334 22.1488 21.2035C22.3222 21.0729 22.533 21.0016 22.75 21Z" stroke="white" stroke-width="3" stroke-linecap="round" stroke-linejoin="round"/>
<path d="M28 28V30M28 30C28 31.0609 27.5786 32.0783 26.8284 32.8284C26.0783 33.5786 25.0609 34 24 34C22.9391 34 21.9217 33.5786 21.1716 32.8284C20.4214 32.0783 20 31.0609 20 30V28M28 30C28 31.0609 28.4214 32.0783 29.1716 32.8284C29.9217 33.5786 30.9391 34 32 34C33.0609 34 34.0783 33.5786 34.8284 32.8284C35.5786 32.0783 36 31.0609 36 30M36 28V30M36 30C36 31.0609 36.4214 32.0783 37.1716 32.8284C37.9217 33.5786 38.9391 34 40 34C41.0609 34 42.0783 33.5786 42.8284 32.8284C43.5786 32.0783 44 31.0609 44 30V28" stroke="white" stroke-width="3" stroke-linecap="round" stroke-linejoin="round"/>
</svg>
