<svg width="57" height="28" viewBox="0 0 57 28" fill="none" xmlns="http://www.w3.org/2000/svg">
<path d="M11.8263 28C9.2045 28 7.0546 27.6077 5.37662 26.8232C3.69864 26.0386 2.46638 24.8889 1.67983 23.3739C0.893276 21.8319 0.5 19.9517 0.5 17.7333V16.1101H8.36551V17.571C8.36551 18.3556 8.44417 18.9778 8.60148 19.4377C8.78501 19.8705 9.09963 20.1681 9.54534 20.3304C10.0173 20.4928 10.6858 20.5739 11.551 20.5739C12.4425 20.5739 13.111 20.4928 13.5568 20.3304C14.0287 20.1681 14.3433 19.8705 14.5006 19.4377C14.6579 18.9778 14.7366 18.3556 14.7366 17.571V0.405797H22.6414V16.6377C22.6414 19.0995 22.2613 21.1826 21.5009 22.887C20.7668 24.5643 19.6001 25.8357 18.0008 26.7014C16.4277 27.5672 14.3695 28 11.8263 28Z" fill="white"/>
<path d="M36.163 28C33.6461 28 31.5486 27.6213 29.8706 26.8638C28.1926 26.0792 26.9342 24.9971 26.0952 23.6174C25.2562 22.2106 24.8367 20.5604 24.8367 18.6667V18.1391H32.1123V18.4638C32.1123 19.1942 32.2303 19.7623 32.4662 20.1681C32.7022 20.5469 33.1217 20.8039 33.7247 20.9391C34.354 21.0744 35.2585 21.142 36.4383 21.142C37.8279 21.142 38.7324 21.0203 39.1519 20.7768C39.5976 20.5333 39.8205 20.114 39.8205 19.5188C39.8205 19.086 39.755 18.7478 39.6239 18.5043C39.519 18.2609 39.3092 18.0715 38.9946 17.9362C38.68 17.7739 38.2212 17.6522 37.6182 17.571L31.8763 16.6377C30.0935 16.3401 28.6384 15.8396 27.511 15.1362C26.4098 14.4058 25.597 13.4995 25.0727 12.4174C24.5745 11.3082 24.3254 10.0502 24.3254 8.64348C24.3254 7.02029 24.7318 5.55942 25.5446 4.26087C26.3574 2.96232 27.6027 1.9343 29.2807 1.17681C30.9587 0.39227 33.0824 0 35.6518 0C38.1163 0 40.1482 0.39227 41.7476 1.17681C43.3469 1.9343 44.5398 2.98937 45.3264 4.34203C46.1129 5.66763 46.5062 7.18261 46.5062 8.88696V9.57681H39.2306V9.08985C39.2306 8.54879 39.1126 8.11594 38.8766 7.7913C38.6669 7.46667 38.2736 7.23672 37.6968 7.10145C37.12 6.93913 36.281 6.85797 35.1798 6.85797C33.7903 6.85797 32.8595 6.97971 32.3876 7.22319C31.9157 7.46667 31.6797 7.84541 31.6797 8.35942C31.6797 8.62995 31.7452 8.8599 31.8763 9.04928C32.0074 9.23865 32.2172 9.40097 32.5056 9.53623C32.8202 9.64444 33.2266 9.75266 33.7247 9.86087L39.4666 10.9159C41.3281 11.2406 42.8225 11.7952 43.9499 12.5797C45.1035 13.3372 45.9294 14.2705 46.4275 15.3797C46.9519 16.4889 47.2141 17.7469 47.2141 19.1536C47.2141 20.7227 46.8339 22.1836 46.0736 23.5362C45.3395 24.8889 44.1596 25.971 42.5341 26.7826C40.9348 27.5942 38.8111 28 36.163 28Z" fill="white"/>
<path d="M56.4607 4.86957H49.1064V0.405797H56.4607V4.86957ZM56.5 27.5942H49.1064V6.73623H56.5V27.5942Z" fill="white"/>
</svg>
