<svg width="64" height="64" viewBox="0 0 64 64" fill="none" xmlns="http://www.w3.org/2000/svg">
<rect width="64" height="64" rx="8" fill="#290A5C"/>
<path d="M24 24H40M24 40H40M38 19H26C25.4696 19 24.9609 19.2107 24.5858 19.5858C24.2107 19.9609 24 20.4696 24 21V43C24 43.5304 24.2107 44.0391 24.5858 44.4142C24.9609 44.7893 25.4696 45 26 45H38C38.5304 45 39.0391 44.7893 39.4142 44.4142C39.7893 44.0391 40 43.5304 40 43V21C40 20.4696 39.7893 19.9609 39.4142 19.5858C39.0391 19.2107 38.5304 19 38 19Z" stroke="white" stroke-width="3" stroke-linecap="round" stroke-linejoin="round"/>
</svg>
