<svg width="97" height="96" viewBox="0 0 97 96" fill="none" xmlns="http://www.w3.org/2000/svg">
<rect width="97" height="96" rx="48" fill="#CAA4FB"/>
<path d="M30.1818 60V51.8182C30.1818 49.3333 30.6212 46.697 31.5 43.9091C32.4091 41.0909 33.7121 38.3788 35.4091 35.7727C37.1364 33.1364 39.2121 30.8485 41.6364 28.9091L47.4545 33.6364C45.5455 36.3636 43.8788 39.2121 42.4545 42.1818C41.0606 45.1212 40.3636 48.2727 40.3636 51.6364V60H30.1818ZM53.4545 60V51.8182C53.4545 49.3333 53.8939 46.697 54.7727 43.9091C55.6818 41.0909 56.9848 38.3788 58.6818 35.7727C60.4091 33.1364 62.4848 30.8485 64.9091 28.9091L70.7273 33.6364C68.8182 36.3636 67.1515 39.2121 65.7273 42.1818C64.3333 45.1212 63.6364 48.2727 63.6364 51.6364V60H53.4545Z" fill="#EE476F"/>
</svg>
