<svg width="64" height="64" viewBox="0 0 64 64" fill="none" xmlns="http://www.w3.org/2000/svg">
<rect width="64" height="64" rx="8" fill="#290A5C"/>
<path d="M21 37V25C21 24.4696 21.2107 23.9609 21.5858 23.5858C21.9609 23.2107 22.4696 23 23 23H41C41.5304 23 42.0391 23.2107 42.4142 23.5858C42.7893 23.9609 43 24.4696 43 25V37M34 28H30M19 37H45V40C45 40.5304 44.7893 41.0391 44.4142 41.4142C44.0391 41.7893 43.5304 42 43 42H21C20.4696 42 19.9609 41.7893 19.5858 41.4142C19.2107 41.0391 19 40.5304 19 40V37Z" stroke="white" stroke-width="3" stroke-linecap="round" stroke-linejoin="round"/>
</svg>
