<svg width="24" height="24" viewBox="0 0 24 24" fill="none" xmlns="http://www.w3.org/2000/svg">
<path d="M2 7L10.165 12.715C10.826 13.178 11.157 13.41 11.516 13.499C11.8338 13.5783 12.1662 13.5783 12.484 13.499C12.844 13.409 13.174 13.179 13.835 12.715L22 7M6.8 20H17.2C18.88 20 19.72 20 20.362 19.673C20.9265 19.3854 21.3854 18.9265 21.673 18.362C22 17.72 22 16.88 22 15.2V8.8C22 7.12 22 6.28 21.673 5.638C21.3854 5.07354 20.9265 4.61462 20.362 4.327C19.72 4 18.88 4 17.2 4H6.8C5.12 4 4.28 4 3.638 4.327C3.07354 4.61462 2.61462 5.07354 2.327 5.638C2 6.28 2 7.12 2 8.8V15.2C2 16.88 2 17.72 2.327 18.362C2.61462 18.9265 3.07354 19.3854 3.638 19.673C4.28 20 5.12 20 6.8 20Z" stroke="white" stroke-width="2" stroke-linecap="round" stroke-linejoin="round"/>
</svg>
