<svg width="32" height="32" viewBox="0 0 32 32" fill="none" xmlns="http://www.w3.org/2000/svg">
<g clip-path="url(#clip0_276_895)">
<mask id="mask0_276_895" style="mask-type:luminance" maskUnits="userSpaceOnUse" x="0" y="0" width="32" height="32">
<path d="M0 0H32V32H0V0Z" fill="white"/>
</mask>
<g mask="url(#mask0_276_895)">
<path d="M32 16C32 7.16267 24.8373 0 16 0C7.16267 0 0 7.16267 0 16C0 23.9873 5.85 30.6067 13.5 31.8067V20.624H9.43733V16H13.5V12.4747C13.5 8.46533 15.8873 6.25 19.544 6.25C21.294 6.25 23.1253 6.56267 23.1253 6.56267V10.5H21.106C19.1193 10.5 18.5 11.7347 18.5 13V16H22.9373L22.228 20.6253H18.5V31.806C26.15 30.6067 32 23.9873 32 16Z" fill="white"/>
</g>
</g>
<defs>
<clipPath id="clip0_276_895">
<rect width="32" height="32" fill="white"/>
</clipPath>
</defs>
</svg>
