<svg width="32" height="32" viewBox="0 0 32 32" fill="none" xmlns="http://www.w3.org/2000/svg">
<g clip-path="url(#clip0_276_891)">
<path fill-rule="evenodd" clip-rule="evenodd" d="M16 0C7.16333 0 0 7.16333 0 16C0 24.8367 7.16333 32 16 32C24.8367 32 32 24.8367 32 16C32 7.16333 24.8367 0 16 0ZM12.482 7.518C13.3927 7.47667 13.6833 7.46667 16.0007 7.46667H15.998C18.3167 7.46667 18.606 7.47667 19.5167 7.518C20.4247 7.56 21.0453 7.704 21.5893 7.91467C22.1588 8.12852 22.6747 8.46437 23.1007 8.89867C23.5349 9.32512 23.8709 9.8411 24.0853 10.4107C24.2953 10.9527 24.4387 11.5733 24.482 12.4813C24.5227 13.392 24.5333 13.6827 24.5333 16C24.5333 18.3173 24.5227 18.608 24.482 19.518C24.4393 20.426 24.2953 21.0467 24.0853 21.5893C23.8708 22.1586 23.5348 22.6744 23.1007 23.1007C22.6748 23.535 22.1593 23.8711 21.59 24.0853C21.0467 24.2967 20.426 24.44 19.518 24.482C18.6073 24.5233 18.318 24.5333 16 24.5333C13.6827 24.5333 13.392 24.5233 12.4813 24.482C11.5733 24.44 10.9527 24.2967 10.41 24.0853C9.84054 23.8711 9.32475 23.535 8.89867 23.1007C8.46454 22.6743 8.12872 22.1583 7.91467 21.5887C7.704 21.046 7.56 20.426 7.518 19.518C7.47733 18.6073 7.46667 18.318 7.46667 16C7.46667 13.6827 7.47733 13.3913 7.518 12.4813C7.55867 11.5733 7.70267 10.9527 7.91467 10.41C8.12925 9.8407 8.46526 9.32497 8.89933 8.89867C9.32568 8.46449 9.8417 8.12866 10.4113 7.91467C10.9533 7.704 11.574 7.56 12.482 7.518Z" fill="white"/>
<path fill-rule="evenodd" clip-rule="evenodd" d="M15.2354 9.00444H16.0007C18.2794 9.00444 18.5494 9.01244 19.4494 9.05311C20.2814 9.09111 20.7327 9.23044 21.0334 9.34711C21.432 9.50177 21.7154 9.68711 22.014 9.98511C22.3127 10.2844 22.4974 10.5684 22.6527 10.9671C22.7694 11.2671 22.9087 11.7184 22.946 12.5504C22.9874 13.4504 22.996 13.7204 22.996 15.9978C22.996 18.2751 22.9874 18.5458 22.9467 19.4451C22.9087 20.2771 22.7694 20.7284 22.6527 21.0291C22.5158 21.3994 22.2976 21.7343 22.014 22.0091C21.7393 22.2926 21.4044 22.5109 21.034 22.6478C20.7334 22.7651 20.2807 22.9038 19.4494 22.9411C18.5494 22.9824 18.2794 22.9911 16.0007 22.9911C13.722 22.9911 13.452 22.9824 12.5527 22.9418C11.7207 22.9031 11.2694 22.7644 10.968 22.6478C10.5973 22.5109 10.262 22.2927 9.9867 22.0091C9.70327 21.734 9.48504 21.3989 9.34804 21.0284C9.23137 20.7284 9.09204 20.2764 9.0547 19.4444C9.01337 18.5444 9.00537 18.2744 9.00537 15.9958C9.00537 13.7171 9.01337 13.4484 9.05404 12.5491C9.0927 11.7164 9.23137 11.2651 9.34804 10.9644C9.5027 10.5658 9.68804 10.2818 9.9867 9.98311C10.2621 9.69966 10.5974 9.48144 10.968 9.34444C11.2687 9.22711 11.7207 9.08844 12.5527 9.05044C13.3394 9.01444 13.6447 9.00377 15.2354 9.00244V9.00444ZM20.5554 10.4211C20.2837 10.4211 20.0232 10.529 19.8311 10.7211C19.639 10.9132 19.531 11.1738 19.531 11.4454C19.531 11.7171 19.639 11.9777 19.8311 12.1698C20.0232 12.3619 20.2837 12.4698 20.5554 12.4698C20.827 12.4698 21.0876 12.3619 21.2797 12.1698C21.4718 11.9777 21.5797 11.7171 21.5797 11.4454C21.5797 11.1738 21.4718 10.9132 21.2797 10.7211C21.0876 10.529 20.827 10.4211 20.5554 10.4211ZM11.6194 15.9998C11.6122 15.4197 11.7203 14.844 11.9373 14.3061C12.1543 13.7681 12.476 13.2786 12.8836 12.8659C13.2913 12.4532 13.7768 12.1255 14.3121 11.9019C14.8473 11.6782 15.4216 11.5631 16.0017 11.5631C16.5818 11.5631 17.1561 11.6782 17.6914 11.9019C18.2266 12.1255 18.7121 12.4532 19.1198 12.8659C19.5274 13.2786 19.8491 13.7681 20.0661 14.3061C20.2831 14.844 20.3912 15.4197 20.384 15.9998C20.3698 17.1527 19.9018 18.2535 19.0815 19.0638C18.2612 19.874 17.1547 20.3284 16.0017 20.3284C14.8487 20.3284 13.7422 19.874 12.9219 19.0638C12.1016 18.2535 11.6336 17.1527 11.6194 15.9998Z" fill="white"/>
<path d="M16.0004 13.1553C16.7549 13.1553 17.4784 13.455 18.0119 13.9885C18.5454 14.5219 18.8451 15.2455 18.8451 15.9999C18.8451 16.7544 18.5454 17.4779 18.0119 18.0114C17.4784 18.5449 16.7549 18.8446 16.0004 18.8446C15.246 18.8446 14.5224 18.5449 13.9889 18.0114C13.4555 17.4779 13.1558 16.7544 13.1558 15.9999C13.1558 15.2455 13.4555 14.5219 13.9889 13.9885C14.5224 13.455 15.246 13.1553 16.0004 13.1553Z" fill="white"/>
</g>
<defs>
<clipPath id="clip0_276_891">
<rect width="32" height="32" fill="white"/>
</clipPath>
</defs>
</svg>
