<svg width="24" height="24" viewBox="0 0 24 24" fill="none" xmlns="http://www.w3.org/2000/svg">
<path d="M14.0502 6C15.0269 6.19057 15.9246 6.66826 16.6283 7.37194C17.3319 8.07561 17.8096 8.97326 18.0002 9.95M14.0502 2C16.0795 2.22544 17.9718 3.13417 19.4164 4.57701C20.8611 6.01984 21.7722 7.91101 22.0002 9.94M10.2272 13.863C9.05834 12.6969 8.09569 11.341 7.38019 9.853C7.33504 9.76771 7.29723 9.67872 7.26719 9.587C7.22805 9.44122 7.22092 9.2887 7.24629 9.1399C7.27167 8.99111 7.32895 8.84957 7.41419 8.725C7.46219 8.658 7.51919 8.601 7.63419 8.487C7.98419 8.137 8.15819 7.963 8.27219 7.787C8.48308 7.46257 8.59532 7.08394 8.59532 6.697C8.59532 6.31006 8.48308 5.93143 8.27219 5.607C8.15819 5.431 7.98319 5.256 7.63419 4.907L7.43919 4.711C6.90719 4.18 6.64219 3.914 6.35619 3.77C6.07639 3.62851 5.76724 3.5548 5.45369 3.5548C5.14015 3.5548 4.831 3.62851 4.55119 3.77C4.26619 3.914 4.00019 4.18 3.46819 4.711L3.31119 4.869C2.78119 5.399 2.51619 5.663 2.31419 6.023C2.09019 6.423 1.92819 7.043 1.93019 7.502C1.93019 7.915 2.01119 8.197 2.17119 8.762C3.06076 11.8944 4.7389 14.7463 7.04519 17.045C9.34408 19.3509 12.1959 21.0287 15.3282 21.918C15.8932 22.078 16.1752 22.158 16.5882 22.16C17.1037 22.1465 17.6093 22.0152 18.0662 21.776C18.4262 21.573 18.6912 21.308 19.2212 20.779L19.3782 20.621C19.9102 20.09 20.1752 19.824 20.3202 19.539C20.4618 19.2591 20.5357 18.9497 20.5357 18.636C20.5357 18.3223 20.4618 18.0129 20.3202 17.733C20.1752 17.448 19.9102 17.183 19.3782 16.651L19.1832 16.456C18.8332 16.106 18.6592 15.932 18.4832 15.817C18.1588 15.6061 17.7801 15.4939 17.3932 15.4939C17.0063 15.4939 16.6276 15.6061 16.3032 15.817C16.1272 15.931 15.9532 16.107 15.6032 16.456C15.4882 16.57 15.4312 16.627 15.3642 16.676C15.1272 16.846 14.7832 16.904 14.5022 16.822C14.4105 16.792 14.3215 16.7542 14.2362 16.709C12.7483 15.9938 11.3924 15.0315 10.2262 13.863H10.2272Z" stroke="white" stroke-width="2" stroke-linecap="round" stroke-linejoin="round"/>
</svg>
