<svg width="32" height="32" viewBox="0 0 32 32" fill="none" xmlns="http://www.w3.org/2000/svg">
<g clip-path="url(#clip0_276_884)">
<path fill-rule="evenodd" clip-rule="evenodd" d="M0 16C0 24.8367 7.16333 32 16 32C24.8367 32 32 24.8367 32 16C32 7.16333 24.8367 0 16 0C7.16333 0 0 7.16333 0 16ZM13.0667 23.3333L13.3387 19.2547L20.758 12.5593C21.0833 12.2707 20.6867 12.1293 20.2547 12.3913L11.098 18.168L7.14333 16.934C6.28933 16.672 6.28333 16.0853 7.33467 15.6633L22.7467 9.72067C23.4507 9.40067 24.13 9.89 23.8613 10.9673L21.2367 23.3353C21.0533 24.2147 20.5227 24.4247 19.7867 24.0187L15.7887 21.0647L13.8667 22.9333L13.8487 22.9507C13.634 23.16 13.4553 23.3333 13.0667 23.3333Z" fill="white"/>
</g>
<defs>
<clipPath id="clip0_276_884">
<rect width="32" height="32" fill="white"/>
</clipPath>
</defs>
</svg>
