<svg width="32" height="32" viewBox="0 0 32 32" fill="none" xmlns="http://www.w3.org/2000/svg">
<g clip-path="url(#clip0_276_889)">
<path fill-rule="evenodd" clip-rule="evenodd" d="M16 0C7.16333 0 0 7.16333 0 16C0 24.8367 7.16333 32 16 32C24.8367 32 32 24.8367 32 16C32 7.16333 24.8367 0 16 0ZM15.5547 13.5587L15.5213 13.0053C15.42 11.57 16.304 10.2593 17.7033 9.75133C18.218 9.57 19.0907 9.54733 19.662 9.706C19.8853 9.77333 20.3107 9.99933 20.6133 10.2027L21.1613 10.576L21.766 10.384C22.1013 10.282 22.5493 10.1127 22.7507 9.99933C22.9407 9.898 23.1087 9.84133 23.1087 9.87533C23.1087 10.0673 22.6947 10.7227 22.348 11.084C21.8773 11.5927 22.012 11.6373 22.9633 11.2987C23.534 11.1067 23.5453 11.1067 23.4333 11.3213C23.3667 11.4347 23.0193 11.83 22.65 12.1913C22.0233 12.8127 21.99 12.8807 21.99 13.4007C21.99 14.2027 21.6093 15.8747 21.2287 16.79C20.5233 18.5073 19.0127 20.2813 17.502 21.174C15.3753 22.428 12.544 22.7447 10.16 22.01C9.36533 21.7613 8 21.1287 8 21.016C8 20.982 8.414 20.9367 8.918 20.9253C9.97197 20.902 11.0032 20.6145 11.9173 20.0893L12.5213 19.728L11.828 19.4907C10.8427 19.1513 9.95867 18.372 9.73467 17.6373C9.668 17.4 9.69 17.3887 10.3167 17.3887L10.966 17.3773L10.4173 17.1173C9.768 16.7907 9.17533 16.2367 8.884 15.6713C8.67133 15.2647 8.40267 14.2367 8.48133 14.158C8.50333 14.1233 8.73867 14.1913 9.00733 14.282C9.77933 14.564 9.88067 14.4967 9.43267 14.022C8.59267 13.1633 8.336 11.8867 8.73867 10.6773L8.92867 10.1353L9.66733 10.8693C11.1787 12.3493 12.958 13.2313 14.9947 13.4907L15.5547 13.5587Z" fill="white"/>
</g>
<defs>
<clipPath id="clip0_276_889">
<rect width="32" height="32" fill="white"/>
</clipPath>
</defs>
</svg>
