<svg width="32" height="32" viewBox="0 0 32 32" fill="none" xmlns="http://www.w3.org/2000/svg">
<g clip-path="url(#clip0_276_886)">
<path fill-rule="evenodd" clip-rule="evenodd" d="M0 16C0 24.8367 7.16333 32 16 32C24.8367 32 32 24.8367 32 16C32 7.16333 24.8367 0 16 0C7.16333 0 0 7.16333 0 16ZM26.0413 15.3873C26.0393 20.632 21.7733 24.8993 16.528 24.9013H16.5233C14.9313 24.9013 13.3667 24.5013 11.9767 23.744L6.93333 25.0667L8.28333 20.1367C7.44925 18.6903 7.0112 17.0496 7.01333 15.38C7.01533 10.1347 11.2833 5.86667 16.5267 5.86667C17.7773 5.86336 19.0162 6.10826 20.1716 6.58717C21.3269 7.06609 22.3758 7.76951 23.2573 8.65667C24.1433 9.53881 24.8455 10.5879 25.3234 11.7432C25.8013 12.8985 26.0453 14.1371 26.0413 15.3873Z" fill="white"/>
<path fill-rule="evenodd" clip-rule="evenodd" d="M9.21714 22.8065L12.2105 22.0212L12.4991 22.1925C13.7176 22.9141 15.1077 23.2947 16.5238 23.2945H16.5271C20.8858 23.2945 24.4331 19.7478 24.4351 15.3872C24.4384 14.348 24.2356 13.3184 23.8384 12.3581C23.4412 11.3978 22.8575 10.5258 22.1211 9.7925C21.389 9.05531 20.5179 8.47072 19.5582 8.0726C18.5986 7.67447 17.5694 7.47073 16.5305 7.47317C12.1685 7.47317 8.62114 11.0205 8.61914 15.3805C8.61914 16.8745 9.03647 18.3298 9.82847 19.5892L10.0165 19.8878L9.21714 22.8065ZM20.9945 17.4358C21.1611 17.5158 21.2725 17.5698 21.3205 17.6498C21.3798 17.7492 21.3798 18.2252 21.1818 18.7805C20.9838 19.3358 20.0338 19.8425 19.5771 19.9105C19.1678 19.9718 18.6491 19.9972 18.0798 19.8165C17.6195 19.6737 17.1671 19.5065 16.7245 19.3158C14.4958 18.3532 12.9898 16.1932 12.7051 15.7852C12.6916 15.7654 12.6778 15.7459 12.6638 15.7265L12.6618 15.7238C12.5358 15.5558 11.6931 14.4305 11.6931 13.2672C11.6931 12.1718 12.2305 11.5978 12.4785 11.3338L12.5251 11.2838C12.6045 11.1933 12.7017 11.1201 12.8107 11.069C12.9197 11.0178 13.0381 10.9897 13.1585 10.9865C13.3171 10.9865 13.4758 10.9878 13.6145 10.9945C13.6318 10.9958 13.6491 10.9958 13.6678 10.9952C13.8065 10.9952 13.9791 10.9938 14.1491 11.4032C14.2151 11.5605 14.3105 11.7938 14.4118 12.0398C14.6165 12.5378 14.8425 13.0885 14.8825 13.1678C14.9418 13.2872 14.9811 13.4258 14.9025 13.5845L14.8691 13.6525C14.8091 13.7738 14.7651 13.8632 14.6645 13.9812C14.6245 14.0278 14.5838 14.0772 14.5425 14.1278C14.4605 14.2272 14.3791 14.3265 14.3078 14.3972C14.1885 14.5158 14.0651 14.6445 14.2031 14.8825C14.3425 15.1205 14.8191 15.8992 15.5258 16.5292C16.2858 17.2072 16.9458 17.4938 17.2805 17.6385C17.3458 17.6672 17.3991 17.6898 17.4378 17.7092C17.6751 17.8285 17.8138 17.8092 17.9525 17.6498C18.0911 17.4912 18.5471 16.9558 18.7058 16.7178C18.8638 16.4798 19.0225 16.5192 19.2405 16.5985C19.4585 16.6785 20.6271 17.2532 20.8645 17.3718L20.9945 17.4358Z" fill="white"/>
</g>
<defs>
<clipPath id="clip0_276_886">
<rect width="32" height="32" fill="white"/>
</clipPath>
</defs>
</svg>
